<?xml version="1.0" encoding="UTF-8" standalone="no"?>
<svg
   version="1.1"
   id="svg2"
   xml:space="preserve"
   width="200"
   height="200"
   viewBox="0 0 200 200"
   sodipodi:docname="logo_small.svg"
   inkscape:export-filename="C:\Users\bartosz.ogrodnik\Desktop\logo_small30dpi.png"
   inkscape:export-xdpi="30"
   inkscape:export-ydpi="30"
   inkscape:version="1.1 (c68e22c387, 2021-05-23)"
   xmlns:inkscape="http://www.inkscape.org/namespaces/inkscape"
   xmlns:sodipodi="http://sodipodi.sourceforge.net/DTD/sodipodi-0.dtd"
   xmlns="http://www.w3.org/2000/svg"
   xmlns:svg="http://www.w3.org/2000/svg"
   xmlns:rdf="http://www.w3.org/1999/02/22-rdf-syntax-ns#"
   xmlns:cc="http://creativecommons.org/ns#"
   xmlns:dc="http://purl.org/dc/elements/1.1/"><metadata
     id="metadata8"><rdf:RDF><cc:Work
         rdf:about=""><dc:format>image/svg+xml</dc:format><dc:type
           rdf:resource="http://purl.org/dc/dcmitype/StillImage" /></cc:Work></rdf:RDF></metadata><defs
     id="defs6"><clipPath
       clipPathUnits="userSpaceOnUse"
       id="clipPath22"><path
         d="M 0,150 H 540 V 0 H 0 Z"
         id="path20" /></clipPath></defs><sodipodi:namedview
     pagecolor="#ffffff"
     bordercolor="#666666"
     borderopacity="1"
     objecttolerance="10"
     gridtolerance="10"
     guidetolerance="10"
     inkscape:pageopacity="0"
     inkscape:pageshadow="2"
     inkscape:window-width="1920"
     inkscape:window-height="1137"
     id="namedview4"
     inkscape:pagecheckerboard="0"
     showgrid="false"
     inkscape:zoom="1.6194444"
     inkscape:cx="187.10121"
     inkscape:cy="81.818184"
     inkscape:window-x="1912"
     inkscape:window-y="-8"
     inkscape:window-maximized="1"
     inkscape:current-layer="g10" /><g
     id="g10"
     inkscape:groupmode="layer"
     inkscape:label="logo rgb"
     transform="matrix(1.3333333,0,0,-1.3333333,0,200)"><g
       id="g40"
       transform="translate(138.56261,31.38471)"
       style="fill:#dcdcdc;fill-opacity:1;stroke:#4e4c4e;stroke-opacity:1"><path
         d="m 0,0 c 0,-11.4 -9.242,-20.642 -20.642,-20.642 h -86.716 C -118.758,-20.642 -128,-11.4 -128,0 v 86.717 c 0,11.4 9.242,20.641 20.642,20.641 h 86.716 C -9.242,107.358 0,98.117 0,86.717 Z"
         style="fill:#dcdcdc;fill-opacity:1;stroke:#4e4c4e;stroke-width:4;stroke-linecap:butt;stroke-linejoin:miter;stroke-miterlimit:10;stroke-dasharray:none;stroke-opacity:1"
         id="path42" /></g><g
       id="g44"
       transform="translate(85.31111,106.52291)"
       style="fill:#4e4c4e;fill-opacity:1;stroke:none"><path
         d="m 0,0 3.364,-1.949 4.693,13.056 18.739,0.715 1.202,2.068 -24.471,1.599 z"
         style="fill:#4e4c4e;fill-opacity:1;fill-rule:nonzero;stroke:none"
         id="path46" /></g><g
       id="g48"
       transform="translate(90.21301,100.14301)"
       style="fill:#4e4c4e;fill-opacity:1;stroke:none"><path
         d="M 0,0 0.062,-3.856 15.544,-9.103 26.455,12.354 23.983,12.249 13.865,-3.033 Z"
         style="fill:#4e4c4e;fill-opacity:1;fill-rule:nonzero;stroke:none"
         id="path50" /></g><g
       id="g52"
       transform="translate(84.81261,101.86811)"
       style="fill:#4e4c4e;fill-opacity:1;stroke:none"><path
         d="m 0,0 c -2.396,1.333 -4.625,0 -4.625,0 l -29.031,-15.656 c 7.312,-3.5 7.198,-10.344 7.198,-10.344 l 26.083,19.042 c 0,0 1.146,0.791 1.708,2.208 0,0 1.6,3.118 -1.333,4.75"
         style="fill:#4e4c4e;fill-opacity:1;fill-rule:nonzero;stroke:none"
         id="path54" /></g><g
       id="g56"
       transform="translate(54.37221,75.092707)"
       style="fill:#4e4c4e;fill-opacity:1;stroke:none"><path
         d="m 0,0 c 0,-4.542 -3.682,-8.225 -8.225,-8.225 -4.542,0 -8.224,3.683 -8.224,8.225 0,4.542 3.682,8.225 8.224,8.225 C -3.682,8.225 0,4.542 0,0"
         style="fill:#4e4c4e;fill-opacity:1;fill-rule:nonzero;stroke:none"
         id="path58" /></g><g
       id="g60"
       transform="translate(45.02111,62.450107)"
       style="fill:#4e4c4e;fill-opacity:1;stroke:none"><path
         d="M 0,0 C 0,0 8.208,0.207 10.958,5.333 L 30.25,-21.791 c 0,0 2.104,-3.166 2.479,-5.416 0,0 1.063,-3.625 -1.187,-6.75 0,0 -3.688,-6.125 -11.125,-1.75 0,0 -2.313,0.75 -5.188,6.375 z"
         style="fill:#4e4c4e;fill-opacity:1;fill-rule:nonzero;stroke:none"
         id="path62" /></g></g></svg>
